<svg xmlns="http://www.w3.org/2000/svg" width="68" height="68" viewBox="0 0 68 68"><defs><style>.a{fill:#e30513;}.b{fill:#fff;fill-rule:evenodd;}</style></defs><g transform="translate(-258.218 -252.868)"><path class="a" d="M292.218,252.868a34,34,0,1,0,34,34,34,34,0,0,0-34-34Z"/><path class="b" d="M287.369,301.046l7.017-19.279a5.316,5.316,0,0,1,1.878-2.478l-2.248-4.822a3.58,3.58,0,0,0-4.758-1.731l-18.594,8.671A3.442,3.442,0,0,0,269,285.981l8.671,18.594a3.58,3.58,0,0,0,4.758,1.732l4.785-2.231A5.16,5.16,0,0,1,287.369,301.046Zm-9.19-11.75a3.524,3.524,0,0,1-4.619-1.679c-.013-.028-.026-.056-.039-.085a3.362,3.362,0,0,1,1.687-4.446,3.525,3.525,0,0,1,4.619,1.679l.037.082A3.363,3.363,0,0,1,278.178,289.3ZM284,301.776a3.524,3.524,0,0,1-4.618-1.679c-.013-.028-.026-.056-.039-.085a3.36,3.36,0,0,1,1.687-4.446,3.524,3.524,0,0,1,4.618,1.679c.013.027.026.054.037.082A3.362,3.362,0,0,1,284,301.776Zm2.042-19.978c-.013-.028-.026-.056-.039-.085a3.36,3.36,0,0,1,1.687-4.445,3.523,3.523,0,0,1,4.618,1.679l.038.082a3.363,3.363,0,0,1-1.686,4.449A3.524,3.524,0,0,1,286.039,281.8Z" transform="translate(-3.2 -5.977)"/><path class="b" d="M328.771,290.6l-19.279-7.017a3.576,3.576,0,0,0-4.589,2.14L297.885,305a3.443,3.443,0,0,0,2.058,4.412l19.279,7.017a3.578,3.578,0,0,0,4.589-2.14l7.017-19.279A3.442,3.442,0,0,0,328.771,290.6Z" transform="translate(-12.075 -9.332)"/><path class="a" d="M328.035,297.417a6.365,6.365,0,0,0-8.436-3.037l-.043.02-.04.019a7.318,7.318,0,0,0-3.4,4.2h0c-.022.055-.039.1-.06.158-.007.019-.015.037-.022.056l-.146.387c-.1.273-.2.545-.294.839l2.933,1.106c.142-.447.291-.892.457-1.319a4.413,4.413,0,0,1,1.9-2.6l.042-.02a3.256,3.256,0,0,1,4.317,1.557,3.321,3.321,0,0,1-1.5,4.406l-.042.019c-1.448.675-3.489-.134-5.464-.917l-2.543-.943c-.221-.083-.445-.169-.676-.258-2.394-.923-5.085-1.971-7.676-.711a6.474,6.474,0,0,0-2.926,8.589,6.383,6.383,0,0,0,8.479,3.021l.042-.02a7.555,7.555,0,0,0,3.453-4.237h0c.064-.144.134-.328.2-.517l.015-.037h0c.1-.289.2-.589.269-.8l-2.922-1.1c-.146.466-.3.928-.48,1.368a4.39,4.39,0,0,1-1.9,2.5,3.139,3.139,0,0,1-2.488.143,3.25,3.25,0,0,1-1.871-1.682,3.319,3.319,0,0,1,1.5-4.405l.037-.018c1.355-.632,3.291.115,5.168.838l.287.109-.006.015,2.574.933.337.133c2.344.929,5.253,2.081,7.906.845l.1-.046A6.475,6.475,0,0,0,328.035,297.417Z" transform="translate(-13.941 -12.521)"/></g></svg>