<svg xmlns="http://www.w3.org/2000/svg" width="40.551" height="46.826" viewBox="0 0 40.551 46.826"><defs><style>.a{fill:#fff;}</style></defs><g transform="translate(-2699.946 -6440.995)"><g transform="translate(2699.946 6446.95)"><path class="a" d="M2718.9,6488.6h-.052a19.506,19.506,0,0,1-8.544-36.727,1.673,1.673,0,0,1,1.571,2.954,16.161,16.161,0,0,0,7.075,30.431,1.672,1.672,0,0,1-.05,3.344Z" transform="translate(-2699.946 -6451.679)"/><g transform="translate(16.16 29.573)"><path class="a" d="M2734.9,6512.173a1.666,1.666,0,0,1-1.219-.526l-3.854-4.1a1.672,1.672,0,1,1,2.437-2.292l3.853,4.1a1.673,1.673,0,0,1-1.218,2.819Z" transform="translate(-2729.129 -6504.731)"/><path class="a" d="M2730.608,6519.28a1.672,1.672,0,0,1-1.146-2.891l4.1-3.854a1.672,1.672,0,0,1,2.292,2.436l-4.1,3.854A1.666,1.666,0,0,1,2730.608,6519.28Z" transform="translate(-2728.935 -6507.983)"/></g></g><g transform="translate(2716.909 6440.995)"><path class="a" d="M2745.071,6485.051a1.673,1.673,0,0,1-.776-3.155,16.162,16.162,0,0,0-6.968-30.481,1.672,1.672,0,0,1,.1-3.343,19.506,19.506,0,0,1,8.412,36.788A1.66,1.66,0,0,1,2745.071,6485.051Z" transform="translate(-2732.735 -6444.126)"/><path class="a" d="M2735.9,6455.349a1.668,1.668,0,0,1-1.22-.528l-3.851-4.1a1.672,1.672,0,1,1,2.438-2.29l3.851,4.1a1.672,1.672,0,0,1-1.219,2.817Z" transform="translate(-2730.375 -6444.052)"/><path class="a" d="M2732.048,6448.191a1.673,1.673,0,0,1-1.146-2.893l4.1-3.851a1.672,1.672,0,0,1,2.29,2.438l-4.1,3.851A1.666,1.666,0,0,1,2732.048,6448.191Z" transform="translate(-2730.375 -6440.995)"/></g></g></svg>