<svg xmlns="http://www.w3.org/2000/svg" width="347.797" height="254.277" viewBox="0 0 347.797 254.277"><defs><style>.a{fill:#dbdbdb;}.b{fill:#45d8bc;}.c{fill:#d845d8;}.d{fill:#ffce00;}.e{fill:#d8457e;}.f{fill:#4550d8;}.g{fill:#ffd5d5;}.h{fill:#abd845;}.i{fill:#005fce;}.j,.m{fill:#ff0aaa;}.k{fill:#fff;}.l,.o{fill:none;}.l{stroke:#e05d5d;stroke-width:8px;stroke-dasharray:1 28;}.m{font-size:53px;font-family:HelveticaNeue-Medium, Helvetica Neue;font-weight:500;}.n{stroke:none;}</style></defs><g transform="translate(-35 -221.879)"><path class="a" d="M16,0H248a16,16,0,0,1,16,16V93a16,16,0,0,1-16,16H16A16,16,0,0,1,0,93V16A16,16,0,0,1,16,0Z" transform="translate(65.944 325.246) rotate(-14)"/><path class="b" d="M6.5,0,13,12H0Z" transform="translate(216 411)"/><path class="b" d="M4,0,8,9H0Z" transform="translate(106 440)"/><path class="b" d="M8.5,0,17,15H0Z" transform="translate(360.132 309.867) rotate(-40)"/><path class="c" d="M8.5,0,17,18H0Z" transform="translate(87.99 261.631) rotate(41)"/><path class="c" d="M3.5,0,7,8H0Z" transform="matrix(-0.574, 0.819, -0.819, -0.574, 268.73, 398.92)"/><path class="d" d="M7.5,0,15,15H0Z" transform="matrix(-0.035, 0.999, -0.999, -0.035, 60.721, 444.818)"/><path class="d" d="M6.5,0,13,12H0Z" transform="matrix(-0.035, 0.999, -0.999, -0.035, 165.723, 277.713)"/><path class="e" d="M8.5,0,17,18H0Z" transform="translate(346.99 439.631) rotate(41)"/><path class="f" d="M8.5,0,17,14H0Z" transform="translate(58.246 367.954) rotate(83)"/><path class="f" d="M8.5,0,17,14H0Z" transform="translate(329.406 335.002) rotate(106)"/><path class="f" d="M10,0,20,17H0Z" transform="matrix(-0.819, 0.574, -0.574, -0.819, 245.994, 235.804)"/><path class="g" d="M0,0H85a16,16,0,0,1,16,16V93a16,16,0,0,1-16,16H0a0,0,0,0,1,0,0V0A0,0,0,0,1,0,0Z" transform="translate(224.102 285.813) rotate(-14)"/><rect class="e" width="4" height="26" transform="translate(160.906 234.759) rotate(22)"/><rect class="h" width="4" height="26" transform="translate(332.989 440.767) rotate(104)"/><rect class="h" width="4" height="12" transform="matrix(-1, 0.017, -0.017, -1, 182.401, 476.086)"/><rect class="h" width="8" height="26" transform="matrix(0.809, -0.588, 0.588, 0.809, 88.395, 228.572)"/><rect class="f" width="7" height="11" transform="translate(301.188 224.267) rotate(59)"/><rect class="c" width="4" height="26" transform="matrix(0.985, 0.174, -0.174, 0.985, 39.515, 269.241)"/><rect class="d" width="4" height="26" transform="matrix(0.985, 0.174, -0.174, 0.985, 364.195, 236.241)"/><path class="i" d="M1,0H4A13,13,0,0,1,17,13V70A13,13,0,0,1,4,83H1a1,1,0,0,1-1-1V1A1,1,0,0,1,1,0Z" transform="translate(70.059 337.618) rotate(-14)"/><path class="j" d="M1.544-4.145,17,17.531v79.48L.059,108.525Z" transform="matrix(0.358, -0.934, 0.934, 0.358, 236.553, 286.517)"/><rect class="k" width="2" height="46" rx="1" transform="translate(83.185 350.375) rotate(-14)"/><rect class="k" width="6" height="24" rx="3" transform="matrix(-0.259, -0.966, 0.966, -0.259, 238.797, 315.233)"/><rect class="k" width="6" height="46" rx="3" transform="matrix(-0.259, -0.966, 0.966, -0.259, 241.797, 324.233)"/><rect class="k" width="4" height="81" rx="2" transform="matrix(-0.259, -0.966, 0.966, -0.259, 253.279, 364.301)"/><rect class="k" width="4" height="34" rx="2" transform="matrix(-0.259, -0.966, 0.966, -0.259, 250.279, 341.301)"/><rect class="k" width="4" height="68" rx="2" transform="matrix(-0.259, -0.966, 0.966, -0.259, 256.279, 372.301)"/><rect class="k" width="2" height="33" rx="1" transform="translate(79.33 358.988) rotate(-14)"/><g class="l" transform="translate(115 308)"><circle class="n" cx="46" cy="46" r="46"/><circle class="o" cx="46" cy="46" r="42"/></g><text class="m" transform="matrix(0.966, -0.259, 0.259, 0.966, 138, 379)"><tspan x="0" y="0">₹₹</tspan></text><circle class="c" cx="5.5" cy="5.5" r="5.5" transform="translate(368 357)"/><circle class="h" cx="2" cy="2" r="2" transform="translate(57 348)"/></g></svg>