<svg xmlns="http://www.w3.org/2000/svg" width="45" height="45" viewBox="0 0 45 45"><defs><style>.a{fill:#529b25;stroke:#fff;}.b{fill:#fff;}.c{stroke:none;}.d{fill:none;}</style></defs><g transform="translate(-296.723 -357.723)"><g class="a" transform="translate(296.723 357.723)"><circle class="c" cx="22.5" cy="22.5" r="22.5"/><circle class="d" cx="22.5" cy="22.5" r="22"/></g><g transform="translate(309.403 373.259)"><path class="b" d="M1385.269,723.722a1.522,1.522,0,0,1-1.076-2.6l11.671-11.671a1.522,1.522,0,0,1,2.152,2.153l-11.671,11.671A1.518,1.518,0,0,1,1385.269,723.722Z" transform="translate(-1378.594 -709.007)"/><path class="b" d="M1380.266,730.048a1.518,1.518,0,0,1-1.076-.446l-5.153-5.153a1.522,1.522,0,0,1,2.153-2.153l5.153,5.153a1.522,1.522,0,0,1-1.076,2.6Z" transform="translate(-1373.591 -715.333)"/></g></g></svg>