<svg xmlns="http://www.w3.org/2000/svg" width="103.492" height="103.492" viewBox="0 0 103.492 103.492"><defs><style>.a{fill:#e30513;}.b{fill:#fff;fill-rule:evenodd;}</style></defs><g transform="translate(-258.218 -252.868)"><path class="a" d="M309.964,252.868a51.744,51.744,0,1,0,.005,0Z" transform="translate(0 0)"/><path class="b" d="M297.126,316l10.68-29.342a8.09,8.09,0,0,1,2.858-3.772l-3.422-7.338A5.449,5.449,0,0,0,300,272.911l-28.3,13.2a5.239,5.239,0,0,0-2.534,6.962l13.2,28.3a5.449,5.449,0,0,0,7.241,2.636l7.282-3.4A7.854,7.854,0,0,1,297.126,316Zm-13.987-17.883a5.364,5.364,0,0,1-7.03-2.556c-.02-.042-.039-.086-.059-.129a5.116,5.116,0,0,1,2.568-6.766,5.364,5.364,0,0,1,7.03,2.556l.057.125A5.118,5.118,0,0,1,283.139,298.115Zm8.856,18.994a5.363,5.363,0,0,1-7.029-2.556c-.02-.042-.04-.085-.059-.129a5.114,5.114,0,0,1,2.568-6.766,5.363,5.363,0,0,1,7.029,2.556c.02.041.039.082.057.125A5.117,5.117,0,0,1,291.995,317.109ZM295.1,286.7c-.02-.043-.04-.086-.059-.13a5.115,5.115,0,0,1,2.568-6.765,5.362,5.362,0,0,1,7.029,2.555l.058.125a5.119,5.119,0,0,1-2.567,6.771A5.363,5.363,0,0,1,295.1,286.7Z" transform="translate(0.588 1.098)"/><path class="b" d="M345,294.373l-29.342-10.679a5.442,5.442,0,0,0-6.984,3.256l-10.68,29.342a5.24,5.24,0,0,0,3.132,6.715l29.342,10.68a5.445,5.445,0,0,0,6.984-3.257l10.68-29.342A5.239,5.239,0,0,0,345,294.373Z" transform="translate(2.217 1.714)"/><path class="a" d="M340.7,299.314a9.688,9.688,0,0,0-12.839-4.622l-.065.031-.061.03c-2.876,1.408-4.282,4.1-5.177,6.39h0c-.033.083-.059.158-.091.24-.011.029-.023.057-.034.085l-.222.588c-.154.415-.3.829-.447,1.277l4.465,1.684c.217-.68.444-1.357.7-2.008.838-2.161,1.733-3.389,2.892-3.955l.063-.031a4.955,4.955,0,0,1,6.57,2.37,5.054,5.054,0,0,1-2.278,6.706l-.063.03c-2.2,1.028-5.31-.2-8.315-1.4l-3.87-1.435c-.337-.126-.677-.257-1.029-.393-3.643-1.4-7.74-3-11.683-1.083a9.853,9.853,0,0,0-4.454,13.072,9.714,9.714,0,0,0,12.9,4.6l.064-.031c2.957-1.447,4.413-4.326,5.256-6.448h0c.1-.219.2-.5.307-.787l.022-.056h0c.157-.439.308-.9.41-1.214l-4.447-1.678c-.223.71-.461,1.412-.73,2.082-.815,2.022-1.739,3.236-2.9,3.8a4.777,4.777,0,0,1-3.786.218,4.947,4.947,0,0,1-2.848-2.559,5.052,5.052,0,0,1,2.278-6.7l.057-.027c2.062-.961,5.008.174,7.865,1.275l.437.166-.01.023,3.917,1.421.512.2c3.567,1.413,8,3.168,12.033,1.285l.147-.07A9.855,9.855,0,0,0,340.7,299.314Z" transform="translate(2.56 2.299)"/></g></svg>