<svg xmlns="http://www.w3.org/2000/svg" width="17" height="12.724" viewBox="0 0 17 12.724"><defs><style>.a{fill:#fff;}</style></defs><g transform="translate(-2719.497 -723.198)"><path class="a" d="M2729.456,735.922a1.52,1.52,0,0,1-1.075-2.6l9.684-9.684a1.52,1.52,0,0,1,2.15,2.15l-9.684,9.684A1.515,1.515,0,0,1,2729.456,735.922Z" transform="translate(-4.163)"/><path class="a" d="M2725.293,741.187a1.514,1.514,0,0,1-1.075-.445l-4.276-4.276a1.52,1.52,0,1,1,2.149-2.149l4.276,4.276a1.52,1.52,0,0,1-1.075,2.6Z" transform="translate(0 -5.265)"/></g></svg>